<svg enable-background="new 0 0 504 198" height="198" viewBox="0 0 504 198" width="504" xmlns="http://www.w3.org/2000/svg" xmlns:xlink="http://www.w3.org/1999/xlink"><clipPath id="a"><path d="m33.018 12.057h446.588v166.3h-446.588z"/></clipPath><clipPath id="b"><path d="m33.018 12.057h446.588v166.3h-446.588z"/></clipPath><clipPath id="c"><path d="m33.018 12.057h446.588v166.3h-446.588z"/></clipPath><clipPath id="d"><path d="m33.018 12.057h446.588v166.3h-446.588z"/></clipPath><path clip-path="url(#a)" d="m181.126 120.122h-12.902v-10.466h-.286c-1.627 3.634-4.444 6.572-8.459 8.816-4.015 2.245-8.65 3.37-13.906 3.37-3.348 0-6.5-.502-9.462-1.506-2.964-1.003-5.569-2.555-7.813-4.659-2.247-2.101-4.039-4.803-5.376-8.1-1.34-3.297-2.007-7.191-2.007-11.684v-43.726h12.902v40.141c0 3.155.431 5.857 1.29 8.101.859 2.247 2.008 4.063 3.441 5.447 1.433 1.387 3.082 2.391 4.945 3.011 1.864.623 3.8.932 5.806.932 2.675 0 5.162-.43 7.455-1.29 2.294-.861 4.301-2.222 6.022-4.086 1.72-1.864 3.057-4.229 4.014-7.097.954-2.867 1.434-6.259 1.434-10.178v-34.981h12.902z" fill="#fff"/><path clip-path="url(#a)" d="m236.751 69.228c-1.53-1.912-3.419-3.513-5.662-4.803-2.248-1.29-4.996-1.936-8.244-1.936-3.06 0-5.712.646-7.957 1.936-2.246 1.29-3.368 3.178-3.368 5.662 0 2.007.645 3.634 1.935 4.875 1.291 1.244 2.819 2.247 4.588 3.011 1.769.766 3.656 1.339 5.663 1.721s3.728.715 5.161 1.003c2.771.669 5.376 1.482 7.812 2.437 2.438.956 4.539 2.2 6.309 3.727 1.768 1.53 3.154 3.394 4.157 5.591 1.004 2.2 1.506 4.875 1.506 8.029 0 3.823-.813 7.096-2.438 9.82-1.627 2.724-3.727 4.945-6.308 6.667-2.581 1.72-5.52 2.964-8.816 3.727-3.299.765-6.62 1.147-9.965 1.147-5.641 0-10.586-.86-14.838-2.581-4.254-1.72-8.053-4.873-11.396-9.462l9.747-8.028c2.103 2.104 4.445 3.967 7.025 5.592s5.735 2.437 9.462 2.437c1.624 0 3.273-.165 4.947-.502 1.67-.333 3.153-.859 4.442-1.576 1.291-.717 2.342-1.624 3.155-2.724.812-1.098 1.219-2.366 1.219-3.799 0-1.912-.599-3.488-1.793-4.732-1.195-1.241-2.63-2.222-4.301-2.938-1.673-.717-3.439-1.291-5.304-1.72-1.864-.431-3.513-.789-4.947-1.076-2.771-.667-5.399-1.433-7.885-2.294-2.486-.86-4.683-2.007-6.594-3.44-1.912-1.434-3.441-3.248-4.587-5.448-1.148-2.198-1.722-4.921-1.722-8.173 0-3.534.739-6.616 2.223-9.246 1.48-2.628 3.439-4.802 5.878-6.523 2.437-1.72 5.208-3.01 8.314-3.871 3.104-.86 6.236-1.29 9.392-1.29 4.587 0 8.981.86 13.188 2.581 4.205 1.72 7.549 4.587 10.035 8.602z" fill="#fff"/><path clip-path="url(#a)" d="m412.081 120.122h-12.902v-10.466h-.287c-1.627 3.634-4.443 6.572-8.459 8.816-4.014 2.245-8.649 3.37-13.905 3.37-3.347 0-6.5-.502-9.462-1.506-2.963-1.003-5.569-2.555-7.813-4.659-2.247-2.101-4.039-4.803-5.376-8.1-1.34-3.297-2.007-7.191-2.007-11.684v-43.726h12.902v40.141c0 3.155.431 5.857 1.29 8.101.86 2.247 2.008 4.063 3.441 5.447 1.433 1.387 3.082 2.391 4.945 3.011 1.864.623 3.8.932 5.807.932 2.674 0 5.161-.43 7.454-1.29 2.294-.861 4.301-2.222 6.022-4.086 1.72-1.864 3.057-4.229 4.014-7.097.954-2.867 1.434-6.259 1.434-10.178v-34.981h12.902z" fill="#fff"/><path clip-path="url(#a)" d="m467.706 69.228c-1.53-1.912-3.419-3.513-5.663-4.803-2.246-1.29-4.995-1.936-8.243-1.936-3.061 0-5.712.646-7.956 1.936-2.247 1.29-3.369 3.178-3.369 5.662 0 2.007.645 3.634 1.936 4.875 1.289 1.244 2.818 2.247 4.587 3.011 1.769.766 3.656 1.339 5.663 1.721s3.728.715 5.161 1.003c2.77.669 5.376 1.482 7.812 2.437 2.438.956 4.54 2.2 6.31 3.727 1.768 1.53 3.154 3.394 4.157 5.591 1.004 2.2 1.506 4.875 1.506 8.029 0 3.823-.813 7.096-2.438 9.82-1.626 2.724-3.726 4.945-6.308 6.667-2.58 1.72-5.519 2.964-8.816 3.727-3.298.765-6.619 1.147-9.964 1.147-5.641 0-10.586-.86-14.838-2.581-4.254-1.72-8.053-4.873-11.396-9.462l9.747-8.028c2.103 2.104 4.445 3.967 7.025 5.592 2.581 1.625 5.735 2.437 9.462 2.437 1.624 0 3.273-.165 4.946-.502 1.671-.333 3.154-.859 4.443-1.576 1.291-.717 2.342-1.624 3.155-2.724.812-1.098 1.218-2.366 1.218-3.799 0-1.912-.598-3.488-1.792-4.732-1.195-1.241-2.63-2.222-4.301-2.938-1.673-.717-3.439-1.291-5.303-1.72-1.865-.431-3.514-.789-4.947-1.076-2.772-.667-5.4-1.433-7.886-2.294-2.485-.86-4.683-2.007-6.594-3.44-1.913-1.434-3.441-3.248-4.587-5.448-1.148-2.198-1.722-4.921-1.722-8.173 0-3.534.739-6.616 2.223-9.246 1.48-2.628 3.439-4.802 5.878-6.523 2.437-1.72 5.208-3.01 8.314-3.871 3.105-.86 6.236-1.29 9.392-1.29 4.587 0 8.981.86 13.188 2.581 4.205 1.72 7.549 4.587 10.035 8.602z" fill="#fff"/><path clip-path="url(#a)" d="m70.502 64.498c-12.282 0-22.274 9.991-22.274 22.272 0 12.282 9.992 22.273 22.274 22.273 12.281 0 22.273-9.991 22.273-22.273.001-12.281-9.991-22.272-22.273-22.272m0 57.124c-19.217 0-34.852-15.635-34.852-34.852 0-19.216 15.635-34.851 34.852-34.851 19.216 0 34.851 15.635 34.851 34.851.001 19.217-15.634 34.852-34.851 34.852" fill="#fff"/><path clip-path="url(#a)" d="m300.77 64.498c-12.28 0-22.271 9.991-22.271 22.272 0 12.282 9.991 22.273 22.271 22.273 12.282 0 22.274-9.991 22.274-22.273 0-12.281-9.992-22.272-22.274-22.272m0 57.124c-19.216 0-34.85-15.635-34.85-34.852 0-19.216 15.634-34.851 34.85-34.851 19.218 0 34.853 15.635 34.853 34.851-.001 19.217-15.636 34.852-34.853 34.852" fill="#fff"/><g fill="#f15a26"><path clip-path="url(#a)" d="m53.631 161.203c0 .971.187 1.887.56 2.746.375.861.885 1.607 1.533 2.244.648.635 1.407 1.139 2.279 1.512.873.375 1.819.561 2.841.561 1.047 0 1.993-.186 2.84-.561.847-.373 1.57-.877 2.168-1.512.598-.637 1.052-1.383 1.364-2.244.311-.859.467-1.775.467-2.746 0-.973-.156-1.887-.467-2.746-.312-.861-.766-1.607-1.364-2.244-.598-.635-1.321-1.139-2.168-1.512-.847-.375-1.793-.562-2.84-.562-1.022 0-1.968.188-2.841.562-.872.373-1.631.877-2.279 1.512-.648.637-1.158 1.383-1.533 2.244-.373.859-.56 1.773-.56 2.746m-2.018-8.633h2.242v3.027h.075c.349-.598.785-1.113 1.308-1.551.523-.436 1.09-.797 1.7-1.084.611-.287 1.252-.498 1.925-.635.672-.137 1.333-.207 1.981-.207 1.32 0 2.535.225 3.644.674s2.067 1.078 2.878 1.887c.809.811 1.438 1.77 1.887 2.877.448 1.109.673 2.324.673 3.645 0 1.322-.225 2.535-.673 3.645-.449 1.107-1.078 2.068-1.887 2.877-.811.811-1.769 1.439-2.878 1.889-1.109.447-2.324.672-3.644.672-.648 0-1.309-.07-1.981-.205-.673-.137-1.314-.35-1.925-.637-.61-.285-1.177-.646-1.7-1.082-.523-.438-.959-.953-1.308-1.553h-.075v11.549h-2.242z"/><path clip-path="url(#a)" d="m89.545 164.979c0 .324.013.717.038 1.178.024.459.043.926.055 1.4.013.473.032.916.057 1.326.025.412.038.729.038.953h-2.243c-.025-.646-.044-1.27-.056-1.867-.014-.6-.044-.984-.094-1.16h-.111c-.449.947-1.197 1.764-2.243 2.447-1.046.688-2.267 1.029-3.663 1.029-1.345 0-2.447-.213-3.307-.635-.859-.424-1.532-.979-2.018-1.664-.486-.686-.816-1.477-.991-2.373s-.261-1.818-.261-2.766v-10.277h2.242v10.166c0 .697.062 1.377.187 2.035.124.662.342 1.252.654 1.775s.747.941 1.309 1.254c.56.311 1.289.467 2.185.467.823 0 1.601-.145 2.337-.432.734-.285 1.369-.723 1.905-1.307.535-.586.959-1.32 1.271-2.205.311-.885.467-1.924.467-3.121v-8.633h2.242z"/><path clip-path="url(#a)" d="m97.244 161.203c0 .971.187 1.887.56 2.746.375.861.885 1.607 1.533 2.244.648.635 1.407 1.139 2.28 1.512.872.375 1.818.562 2.84.562 1.047 0 1.993-.188 2.84-.562.848-.373 1.57-.877 2.168-1.512.599-.637 1.053-1.383 1.364-2.244.312-.859.467-1.775.467-2.746s-.155-1.887-.467-2.746-.766-1.607-1.364-2.244c-.598-.635-1.32-1.139-2.168-1.512-.847-.375-1.793-.561-2.84-.561-1.022 0-1.968.186-2.84.561-.873.373-1.632.877-2.28 1.512-.648.637-1.158 1.385-1.533 2.244-.373.859-.56 1.775-.56 2.746m-2.018-19.621h2.242v14.016h.075c.349-.6.785-1.115 1.308-1.551.524-.436 1.09-.799 1.7-1.084.611-.287 1.252-.498 1.925-.635.672-.137 1.333-.207 1.981-.207 1.32 0 2.535.227 3.645.674 1.108.447 2.067 1.078 2.878 1.887.809.811 1.438 1.77 1.887 2.879.448 1.107.673 2.322.673 3.643s-.225 2.535-.673 3.645c-.449 1.107-1.078 2.068-1.887 2.877-.811.811-1.77 1.439-2.878 1.887-1.109.449-2.324.674-3.645.674-.648 0-1.309-.07-1.981-.207-.673-.135-1.314-.348-1.925-.635-.61-.285-1.176-.648-1.7-1.084-.523-.436-.959-.951-1.308-1.551h-.075v3.027h-2.242z"/><path d="m118.92 141.582h2.242v28.254h-2.242z"/><path clip-path="url(#b)" d="m127.926 152.57h2.243v17.266h-2.243zm-.56-6.84c0-.473.162-.871.485-1.195.323-.322.723-.486 1.196-.486s.871.164 1.195.486c.324.324.485.723.485 1.195 0 .475-.161.873-.485 1.197s-.723.486-1.195.486c-.474 0-.873-.162-1.196-.486s-.485-.722-.485-1.197"/><path clip-path="url(#b)" d="m150.985 167.295c-.848 1.021-1.808 1.775-2.879 2.262s-2.229.729-3.476.729c-1.321 0-2.542-.225-3.662-.674-1.121-.449-2.081-1.076-2.878-1.887s-1.42-1.77-1.869-2.877c-.448-1.109-.672-2.324-.672-3.645 0-1.318.224-2.533.672-3.645.449-1.107 1.072-2.066 1.869-2.877.797-.809 1.757-1.439 2.878-1.887 1.12-.447 2.341-.674 3.662-.674 1.271 0 2.448.264 3.532.785 1.084.523 2.049 1.258 2.896 2.205l-1.794 1.346c-.646-.723-1.357-1.289-2.13-1.701-.771-.41-1.606-.615-2.504-.615-1.047 0-1.993.186-2.84.561-.847.373-1.57.877-2.168 1.514-.598.635-1.052 1.381-1.364 2.242-.312.859-.466 1.775-.466 2.746 0 .973.154 1.887.466 2.746.312.861.767 1.607 1.364 2.244.598.635 1.321 1.139 2.168 1.512.847.375 1.793.562 2.84.562.947 0 1.813-.219 2.598-.656.784-.434 1.463-1.014 2.036-1.736z"/><path clip-path="url(#b)" d="m154.87 152.57h2.243v17.266h-2.243zm-.559-6.84c0-.473.161-.871.485-1.195.323-.322.723-.486 1.196-.486s.871.164 1.195.486c.323.324.485.723.485 1.195 0 .475-.162.873-.485 1.197-.324.324-.723.486-1.195.486-.474 0-.873-.162-1.196-.486-.324-.323-.485-.722-.485-1.197"/><path clip-path="url(#b)" d="m178.788 161.203c0-.971-.187-1.887-.561-2.746-.374-.861-.885-1.607-1.532-2.242-.647-.637-1.408-1.141-2.28-1.514-.871-.375-1.818-.561-2.841-.561-1.046 0-1.993.186-2.84.561-.846.373-1.569.877-2.168 1.514-.597.635-1.052 1.381-1.363 2.242-.312.859-.467 1.775-.467 2.746 0 .973.155 1.887.467 2.746.312.861.767 1.607 1.363 2.244.599.635 1.322 1.139 2.168 1.512.847.375 1.794.562 2.84.562 1.022 0 1.97-.188 2.841-.562.872-.373 1.633-.877 2.28-1.512.647-.637 1.158-1.383 1.532-2.244.375-.859.561-1.773.561-2.746m-.225 5.606h-.074c-.35.598-.785 1.115-1.308 1.551-.524.438-1.091.797-1.701 1.084-.611.287-1.252.5-1.925.635-.673.139-1.333.207-1.981.207-1.319 0-2.541-.225-3.661-.674-1.122-.449-2.082-1.076-2.879-1.887s-1.419-1.77-1.868-2.877c-.448-1.109-.673-2.324-.673-3.645 0-1.318.225-2.533.673-3.645.449-1.107 1.071-2.066 1.868-2.877.797-.809 1.757-1.439 2.879-1.887 1.12-.447 2.342-.674 3.661-.674.648 0 1.309.07 1.981.205.673.139 1.313.352 1.925.637.61.287 1.177.648 1.701 1.084.522.436.958.953 1.308 1.551h.074v-14.014h2.243v28.252h-2.243z"/><path clip-path="url(#b)" d="m195.231 161.166c-.946 0-1.861.062-2.747.186-.884.127-1.681.336-2.391.637-.71.299-1.277.697-1.701 1.195s-.635 1.121-.635 1.869c0 .523.118.99.354 1.4.237.412.542.748.915 1.01.374.262.792.461 1.252.598.461.137.929.207 1.402.207 1.196 0 2.18-.174 2.953-.523.771-.35 1.388-.805 1.849-1.365s.779-1.195.954-1.906c.174-.709.261-1.426.261-2.148v-1.158h-2.466zm4.486 1.42c0 .848.006 1.605.019 2.279s.031 1.297.057 1.869c.023.574.056 1.109.093 1.607.038.498.094.996.168 1.494h-2.092c-.15-.848-.226-1.781-.226-2.803h-.073c-.649 1.121-1.452 1.943-2.411 2.467-.96.523-2.173.785-3.644.785-.748 0-1.482-.094-2.206-.281-.723-.186-1.371-.484-1.942-.896-.573-.412-1.041-.939-1.401-1.588-.362-.648-.543-1.432-.543-2.355 0-1.32.337-2.365 1.009-3.139.673-.771 1.501-1.352 2.486-1.736.984-.389 2.03-.637 3.139-.748 1.108-.113 2.087-.168 2.935-.168h2.615v-1.047c0-1.496-.461-2.566-1.383-3.215-.921-.646-2.08-.973-3.475-.973-1.994 0-3.75.65-5.27 1.945l-1.309-1.533c.823-.797 1.844-1.4 3.065-1.812 1.221-.41 2.391-.617 3.513-.617 2.093 0 3.762.492 5.007 1.477 1.246.984 1.869 2.572 1.869 4.766z"/><path clip-path="url(#b)" d="m221.02 161.203c0-.971-.188-1.887-.562-2.746-.374-.861-.885-1.607-1.532-2.242-.647-.637-1.407-1.141-2.28-1.514-.871-.375-1.818-.561-2.84-.561-1.046 0-1.993.186-2.84.561-.848.373-1.569.877-2.168 1.514-.598.635-1.053 1.381-1.363 2.242-.312.859-.467 1.775-.467 2.746 0 .973.154 1.887.467 2.746.311.861.766 1.607 1.363 2.244.599.635 1.32 1.139 2.168 1.512.847.375 1.794.562 2.84.562 1.021 0 1.969-.188 2.84-.562.873-.373 1.633-.877 2.28-1.512.647-.637 1.158-1.383 1.532-2.244.374-.859.562-1.773.562-2.746m-.225 5.606h-.074c-.351.598-.785 1.115-1.31 1.551-.522.438-1.09.797-1.699 1.084-.611.287-1.253.5-1.926.635-.673.139-1.333.207-1.98.207-1.32 0-2.541-.225-3.661-.674-1.122-.449-2.082-1.076-2.879-1.887s-1.419-1.77-1.868-2.877c-.449-1.109-.673-2.324-.673-3.645 0-1.318.224-2.533.673-3.645.449-1.107 1.071-2.066 1.868-2.877.797-.809 1.757-1.439 2.879-1.887 1.12-.447 2.341-.674 3.661-.674.647 0 1.308.07 1.98.205.673.139 1.314.352 1.926.637.609.287 1.177.648 1.699 1.084.524.436.959.953 1.31 1.551h.074v-14.014h2.242v28.252h-2.242z"/><path clip-path="url(#b)" d="m238.247 157.43c0-.324-.014-.717-.037-1.18-.025-.461-.044-.926-.057-1.398-.013-.475-.032-.916-.057-1.328-.024-.41-.037-.729-.037-.953h2.242c.025.646.043 1.27.056 1.869.013.598.044.984.095 1.158h.111c.448-.947 1.196-1.762 2.242-2.447s2.268-1.029 3.663-1.029c1.145 0 2.192.293 3.139.879s1.633 1.539 2.056 2.859c.548-1.295 1.364-2.242 2.447-2.84 1.084-.6 2.225-.898 3.421-.898 1.345 0 2.44.213 3.288.635.847.426 1.515.979 2 1.664s.821 1.477 1.01 2.373c.186.898.279 1.82.279 2.766v10.277h-2.242v-10.167c0-.695-.062-1.377-.188-2.035-.124-.66-.342-1.252-.653-1.775-.312-.523-.748-.941-1.309-1.252-.56-.311-1.289-.467-2.186-.467-1.048 0-1.906.193-2.579.578-.673.387-1.202.879-1.589 1.477s-.66 1.246-.821 1.943c-.163.697-.243 1.357-.243 1.98v9.717h-2.242v-10.389c0-1.594-.293-2.877-.879-3.85-.585-.973-1.488-1.457-2.709-1.457-.823 0-1.602.143-2.336.43-.736.287-1.37.723-1.906 1.307-.536.586-.959 1.322-1.27 2.205-.313.885-.469 1.924-.469 3.121v8.633h-2.241v-12.406z"/><path clip-path="url(#b)" d="m279.918 143.377h2.989l-5.008 5.381h-1.869zm-8.559 17.826c0 .973.155 1.887.467 2.746.312.861.767 1.607 1.363 2.244.599.635 1.322 1.139 2.168 1.512.847.375 1.794.562 2.84.562 1.047 0 1.994-.188 2.84-.562.849-.373 1.571-.877 2.168-1.512.599-.637 1.054-1.383 1.364-2.244.312-.859.467-1.773.467-2.746 0-.971-.154-1.887-.467-2.746-.311-.859-.766-1.607-1.364-2.244-.597-.635-1.319-1.139-2.168-1.512-.846-.375-1.793-.561-2.84-.561-1.046 0-1.993.186-2.84.561-.846.373-1.569.877-2.168 1.512-.597.637-1.052 1.385-1.363 2.244s-.467 1.775-.467 2.746m-2.243 0c0-1.318.225-2.535.673-3.645.448-1.107 1.071-2.066 1.868-2.877.797-.809 1.757-1.439 2.879-1.887 1.12-.447 2.342-.674 3.661-.674 1.321 0 2.535.227 3.646.674 1.107.447 2.066 1.078 2.877 1.887.809.811 1.438 1.77 1.888 2.877.448 1.109.672 2.326.672 3.645 0 1.32-.224 2.535-.672 3.645-.449 1.107-1.079 2.068-1.888 2.877-.811.811-1.77 1.439-2.877 1.887-1.11.449-2.324.674-3.646.674-1.319 0-2.541-.225-3.661-.674-1.122-.447-2.082-1.076-2.879-1.887-.797-.809-1.42-1.77-1.868-2.877-.448-1.11-.673-2.325-.673-3.645"/><path d="m289.857 152.57h2.542l5.755 14.838 5.606-14.838h2.279l-6.801 17.266h-2.317z"/><path clip-path="url(#c)" d="m309.964 152.57h2.243v17.266h-2.243zm-.561-6.84c0-.473.162-.871.486-1.195.323-.322.722-.486 1.196-.486.473 0 .871.164 1.194.486.324.324.486.723.486 1.195 0 .475-.162.873-.486 1.197-.323.324-.722.486-1.194.486-.475 0-.873-.162-1.196-.486-.324-.323-.486-.722-.486-1.197"/><path d="m318.933 141.582h2.243v28.254h-2.243z"/><path clip-path="url(#d)" d="m79.125 86.77c0 4.762-3.86 8.622-8.622 8.622s-8.622-3.86-8.622-8.622 3.86-8.622 8.622-8.622 8.622 3.86 8.622 8.622"/><path clip-path="url(#d)" d="m309.393 87.004c0 4.762-3.86 8.622-8.622 8.622s-8.622-3.86-8.622-8.622 3.86-8.622 8.622-8.622 8.622 3.861 8.622 8.622"/></g><path d="m33.018 12.058v59.955l13.163-13.805v-46.15z" fill="#fff"/><path d="m263.82 12.058v59.955l13.162-13.805v-46.15z" fill="#fff"/></svg>