<?xml version="1.0" encoding="utf-8"?>
<!-- Generator: Adobe Illustrator 16.0.0, SVG Export Plug-In . SVG Version: 6.00 Build 0)  -->
<!DOCTYPE svg PUBLIC "-//W3C//DTD SVG 1.1//EN" "http://www.w3.org/Graphics/SVG/1.1/DTD/svg11.dtd">
<svg version="1.1" id="Layer_1" xmlns="http://www.w3.org/2000/svg" xmlns:xlink="http://www.w3.org/1999/xlink" x="0px" y="0px"
	 width="566.93px" height="118px" viewBox="0 0 566.93 118" enable-background="new 0 0 566.93 118" xml:space="preserve">
<path fill="#D2B62A" d="M151.168,48.879c-0.653-1.958-1.439-4.02-2.358-6.186c-0.921-2.165-2.107-4.152-3.56-5.962
	c-1.455-1.81-3.264-3.293-5.43-4.451c-2.166-1.157-4.85-1.735-8.054-1.735c-4.332,0-7.743,0.801-10.235,2.402
	c-2.492,1.603-4.376,3.828-5.652,6.676s-2.091,6.245-2.447,10.191c-0.356,3.946-0.534,8.262-0.534,12.949
	c0,6.172,0.356,11.273,1.068,15.307c0.712,4.037,1.825,7.241,3.338,9.613c1.512,2.374,3.47,4.035,5.874,4.984
	c2.403,0.948,5.264,1.424,8.588,1.424c2.67,0,5.087-0.534,7.254-1.604c2.165-1.066,4.078-2.476,5.74-4.227
	c1.66-1.749,3.055-3.752,4.183-6.007c1.126-2.255,1.958-4.599,2.492-7.031h1.424v18.868h-1.424
	c-0.297-0.712-0.654-1.202-1.068-1.469c-0.416-0.267-1.039-0.4-1.869-0.4c-0.712,0-1.633,0.164-2.759,0.489
	c-1.128,0.327-2.418,0.683-3.871,1.067c-1.455,0.386-3.042,0.742-4.762,1.068c-1.722,0.326-3.531,0.49-5.429,0.49
	c-4.332,0-8.515-0.847-12.549-2.537c-4.036-1.691-7.58-4.005-10.635-6.942c-3.057-2.937-5.505-6.392-7.343-10.369
	c-1.84-3.973-2.759-8.275-2.759-12.903c0-5.043,1.024-9.612,3.07-13.707c2.048-4.095,4.673-7.595,7.877-10.502
	c3.204-2.907,6.778-5.147,10.725-6.72c3.945-1.571,7.816-2.358,11.614-2.358c1.898,0,3.663,0.178,5.296,0.534
	c1.631,0.356,3.144,0.727,4.539,1.112c1.393,0.387,2.654,0.756,3.782,1.113c1.126,0.356,2.076,0.534,2.848,0.534
	c0.83,0,1.453-0.104,1.869-0.312c0.414-0.207,0.712-0.726,0.89-1.557h1.424v18.156H151.168z"/>
<polygon fill="#D2B62A" points="190.861,30.723 190.861,31.969 182.673,31.969 182.673,92.846 190.861,92.846 190.861,94.092 
	161.58,94.092 161.58,92.846 169.768,92.846 169.768,31.969 161.58,31.969 161.58,30.723 "/>
<path fill="#D2B62A" d="M250.847,30.723v15.219h-1.157c-0.298-1.008-0.801-2.299-1.513-3.871c-0.712-1.572-1.706-3.1-2.982-4.584
	c-1.276-1.483-2.923-2.773-4.939-3.871c-2.018-1.098-4.481-1.647-7.387-1.647h-14.151V59.47h4.984c2.194,0,4.049-0.311,5.562-0.935
	c1.513-0.623,2.773-1.512,3.783-2.669c1.008-1.158,1.838-2.551,2.492-4.184c0.652-1.631,1.186-3.455,1.602-5.473h1.157v27.679
	h-1.157c-0.416-1.722-0.905-3.383-1.469-4.984s-1.321-3.011-2.269-4.228c-0.95-1.216-2.122-2.182-3.515-2.893
	c-1.395-0.712-3.131-1.068-5.207-1.068h-5.963v32.129h14.596c2.728,0,5.191-0.459,7.387-1.381c2.194-0.919,4.138-2.209,5.83-3.87
	c1.691-1.66,3.099-3.604,4.227-5.83c1.126-2.226,1.987-4.612,2.581-7.164h1.157v19.491h-56.871v-1.246h8.188V31.969h-8.188v-1.246
	H250.847z"/>
<polygon fill="#D2B62A" points="284.487,30.723 299.885,75.045 300.062,75.045 315.727,30.723 337.977,30.723 337.977,31.969 
	329.788,31.969 329.788,92.846 337.977,92.846 337.977,94.092 308.784,94.092 308.784,92.846 316.883,92.846 316.883,31.969 
	316.705,31.969 294.812,94.092 293.388,94.092 271.404,31.969 271.226,31.969 271.226,92.846 279.414,92.846 279.414,94.092 
	261.614,94.092 261.614,92.846 269.802,92.846 269.802,31.969 261.614,31.969 261.614,30.723 "/>
<path fill="#D2B62A" d="M347.943,74.334c0.118,0.712,0.326,1.646,0.623,2.803c0.296,1.157,0.726,2.403,1.291,3.738
	c0.562,1.335,1.275,2.7,2.136,4.094c0.859,1.395,1.913,2.685,3.159,3.872c1.364,1.365,2.684,2.402,3.96,3.114
	c1.276,0.713,2.493,1.232,3.65,1.558c1.156,0.327,2.254,0.505,3.293,0.534c1.037,0.031,2.002,0.045,2.892,0.045
	c3.145,0,5.725-0.489,7.743-1.469c2.017-0.979,3.604-2.182,4.762-3.604c1.157-1.424,1.972-2.922,2.447-4.495
	c0.474-1.57,0.712-2.951,0.712-4.138c0-2.195-0.52-4.005-1.557-5.429c-1.039-1.426-2.419-2.61-4.14-3.562
	c-1.722-0.948-3.68-1.749-5.874-2.402c-2.195-0.651-4.449-1.319-6.764-2.003c-2.314-0.681-4.569-1.481-6.764-2.402
	c-2.195-0.919-4.153-2.106-5.874-3.561c-1.722-1.453-3.102-3.249-4.139-5.384c-1.039-2.136-1.558-4.806-1.558-8.01
	c0-2.373,0.534-4.657,1.602-6.854c1.068-2.194,2.551-4.138,4.45-5.829c1.898-1.691,4.168-3.055,6.81-4.094
	c2.639-1.038,5.502-1.557,8.588-1.557c1.958,0,3.678,0.178,5.162,0.534c1.482,0.355,2.788,0.727,3.916,1.112
	c1.126,0.387,2.121,0.756,2.981,1.113c0.859,0.356,1.646,0.534,2.358,0.534c0.83,0,1.38-0.134,1.646-0.401
	c0.268-0.267,0.549-0.756,0.846-1.468h1.424v16.91h-1.157c-0.712-2.076-1.468-4.123-2.27-6.142c-0.801-2.015-1.824-3.841-3.07-5.472
	c-1.246-1.632-2.819-2.952-4.717-3.961c-1.9-1.008-4.303-1.513-7.209-1.513c-2.374,0-4.466,0.326-6.275,0.978
	c-1.81,0.654-3.337,1.513-4.583,2.581c-1.246,1.069-2.196,2.256-2.848,3.561c-0.654,1.306-0.979,2.641-0.979,4.005
	c0,2.077,0.548,3.798,1.647,5.162c1.097,1.365,2.536,2.536,4.315,3.515c1.78,0.979,3.812,1.825,6.097,2.537
	c2.283,0.712,4.629,1.454,7.031,2.224c2.402,0.773,4.746,1.618,7.03,2.538c2.284,0.919,4.317,2.09,6.097,3.515
	c1.78,1.425,3.219,3.146,4.316,5.161c1.098,2.02,1.647,4.511,1.647,7.478c0,2.907-0.595,5.667-1.78,8.276
	c-1.188,2.611-2.863,4.896-5.029,6.854s-4.747,3.515-7.742,4.673c-2.997,1.156-6.335,1.735-10.013,1.735
	c-1.84,0-3.664-0.179-5.473-0.534c-1.812-0.357-3.502-0.726-5.073-1.113c-1.573-0.385-2.968-0.756-4.184-1.112
	c-1.217-0.355-2.122-0.533-2.715-0.533c-0.831,0-1.424,0.133-1.779,0.399c-0.356,0.268-0.684,0.817-0.979,1.647h-1.424V74.334
	H347.943z"/>
<path fill="#D2B62A" d="M403.925,92.846l26.521-64.615h2.403l28.035,64.615h7.653v1.246h-29.903v-1.246h8.276l-10.324-23.853
	h-21.359l-9.879,23.853h7.921v1.246h-16.821v-1.246H403.925z M415.673,67.747h20.47L425.641,43.45L415.673,67.747z"/>
</svg>
