<?xml version='1.0' encoding='utf-8'?>
<svg xmlns="http://www.w3.org/2000/svg" xmlns:xlink="http://www.w3.org/1999/xlink" enable-background="new 0 0 40.95 45.55" version="1.1" viewBox="0 0 40.95 45.55">
<symbol id="t" viewBox="1 -12.2 8.5 12.2">
		<path d="m9.5-12.2l-8.5 5.1c4.933-2.746 7.4-3.462 7.4-2.15 0.467 4.067 0.783 7.15 0.95 9.25l0.15-0.05v-12.15z" clip-rule="evenodd" fill="#fff" fill-rule="evenodd"/>
</symbol>
		<radialGradient id="k" cx="-44" cy="20.551" r="38.675" gradientTransform="matrix(1.2928e-5 -1 -1 1.2928e-5 41.102 -.00067349)" gradientUnits="userSpaceOnUse">
		<stop stop-color="#CB99EB" offset="0"/>
		<stop stop-color="#E8C2FF" offset="1"/>
	</radialGradient>
	<path d="m27.25 22.85c0-5.633-0.65-10.434-1.95-14.4-1.3-3.967-2.883-5.95-4.75-5.95-0.9 0-1.783 0.567-2.65 1.7-0.833 1.066-1.55 2.566-2.15 4.5l1.05 0.2c-0.233 0.4-0.517 1.167-0.85 2.3-0.667 2.267-1.217 5.283-1.65 9.05-0.267 2-0.367 4.116-0.3 6.35 0.3 4.733 1.067 8.667 2.3 11.801 1.233 3.166 2.65 4.75 4.25 4.75 1.867 0 3.45-1.983 4.75-5.95s1.95-8.751 1.95-14.351zm-1.85-14.7c1.399 4.033 2.1 8.917 2.1 14.65 0 5.7-0.7 10.566-2.1 14.601-1.4 4.033-3.084 6.05-5.051 6.05-1.3 0-2.516-0.983-3.649-2.95-1.1-1.9-1.95-4.45-2.55-7.65-0.566-1.933-0.9-4.483-1-7.649-0.133-4.633 0.017-8.817 0.45-12.55 0.233-1.867 0.483-3.267 0.75-4.2l0.8 0.15c1.467-4.333 3.2-6.5 5.2-6.5 1.966-2e-3 3.65 2.015 5.05 6.048z" clip-rule="evenodd" fill="url(#k)" fill-rule="evenodd"/>
		<radialGradient id="l" cx="6.2476" cy="-15.85" r="3.3002" gradientTransform="matrix(.00015152 1 1 .00015152 31.699 .0049)" gradientUnits="userSpaceOnUse">
		<stop stop-color="#EAC7FF" offset="0"/>
		<stop stop-color="#C295DE" offset="1"/>
	</radialGradient>
	<path d="m17.9 7.6c0 0.566-0.2 1.05-0.6 1.45s-0.883 0.6-1.45 0.6-1.05-0.2-1.45-0.6-0.6-0.883-0.6-1.45 0.2-1.05 0.6-1.45 0.883-0.6 1.45-0.6c0.566 0 1.05 0.2 1.45 0.6 0.4 0.433 0.6 0.917 0.6 1.45z" clip-rule="evenodd" fill="url(#l)" fill-rule="evenodd"/>
		<radialGradient id="m" cx="7.8159" cy="9.9385" r="40.947" gradientTransform="matrix(.87 .493 .493 -.87 -9.7995 17.294)" gradientUnits="userSpaceOnUse">
		<stop stop-color="#CB99EB" offset="0"/>
		<stop stop-color="#E8C2FF" offset="1"/>
	</radialGradient>
	<path d="m32.8 24.45c-1.666-1.667-4.05-3.6-7.149-5.8-1.601-1.133-3.417-2.233-5.45-3.3-4.3-2-8.117-3.217-11.45-3.65-3.367-0.4-5.433 0.1-6.2 1.5-0.867 1.633 0.133 3.966 3 7 2.833 3.066 6.717 5.934 11.65 8.6 4.934 2.7 9.45 4.417 13.55 5.15 4.1 0.767 6.583 0.333 7.45-1.3 0.934-1.634-0.101-4.034-3.101-7.2l-0.7 0.85c-0.2-0.4-0.733-1.017-1.6-1.85zm-0.15-2.7c1.533 1.1 2.649 1.983 3.35 2.65l-0.55 0.6c1.467 1.533 2.483 2.967 3.05 4.3 0.6 1.367 0.667 2.483 0.2 3.351-0.934 1.733-3.517 2.25-7.75 1.55-4.2-0.7-8.816-2.417-13.85-5.15-5-2.733-8.934-5.666-11.8-8.8-2.9-3.167-3.883-5.617-2.95-7.35 0.633-1.167 2.083-1.767 4.35-1.8 2.2-0.067 4.867 0.4 8 1.4 2.1 0.5 4.483 1.433 7.149 2.8 4.134 2.099 7.734 4.249 10.801 6.449z" clip-rule="evenodd" fill="url(#m)" fill-rule="evenodd"/>
		<radialGradient id="n" cx="41.8" cy="-11.135" r="3.7915" gradientTransform="matrix(.6399 .7685 .7685 -.6399 17.114 -14.249)" gradientUnits="userSpaceOnUse">
		<stop stop-color="#EAC7FF" offset="0"/>
		<stop stop-color="#C295DE" offset="1"/>
	</radialGradient>
	<path d="m35.2 27.85c-0.467-0.267-0.783-0.666-0.95-1.199-0.167-0.534-0.116-1.051 0.15-1.551s0.683-0.833 1.25-1c0.533-0.133 1.05-0.066 1.55 0.2 0.467 0.267 0.783 0.667 0.95 1.2 0.166 0.533 0.116 1.05-0.15 1.55s-0.684 0.834-1.25 1c-0.533 0.134-1.05 0.066-1.55-0.2z" clip-rule="evenodd" fill="url(#n)" fill-rule="evenodd"/>
		<radialGradient id="o" cx="-27.084" cy="-29.814" r="39.629" gradientTransform="matrix(-.8624 .5063 .5063 .8624 30.188 51.423)" gradientUnits="userSpaceOnUse">
		<stop stop-color="#CB99EB" offset="0"/>
		<stop stop-color="#E8C2FF" offset="1"/>
	</radialGradient>
	<path d="m38.05 12.45c-0.934-1.6-3.434-1.967-7.5-1.1-4.1 0.833-8.583 2.65-13.45 5.45s-8.684 5.75-11.45 8.851c-2.8 3.1-3.733 5.449-2.8 7.05 0.967 1.633 3.566 2 7.8 1.1l-0.35-1c0.467 0.033 1.267-0.1 2.4-0.399 2.3-0.567 5.2-1.601 8.7-3.101 1.966-0.866 3.833-1.833 5.6-2.899 3.967-2.634 7-5.25 9.1-7.851 2.133-2.668 2.784-4.701 1.95-6.101zm-7.4-1.35c4.199-0.8 6.8-0.35 7.8 1.35 0.666 1.167 0.434 2.716-0.7 4.65-1.1 1.9-2.9 3.917-5.4 6.05-1.399 1.466-3.433 3.017-6.1 4.649-3.967 2.434-7.683 4.384-11.15 5.851-1.733 0.767-3.067 1.267-4 1.5l-0.3-0.801c-4.4 0.934-7.133 0.517-8.2-1.25-0.967-1.699-0.05-4.165 2.75-7.399 2.8-3.233 6.667-6.267 11.6-9.1 4.934-2.833 9.5-4.667 13.7-5.5z" clip-rule="evenodd" fill="url(#o)" fill-rule="evenodd"/>
		<radialGradient id="p" cx="29.557" cy="17.253" r="3.3234" gradientTransform="matrix(.7071 .7071 .7071 -.7071 -24.4 24.4)" gradientUnits="userSpaceOnUse">
		<stop stop-color="#EAC7FF" offset="0"/>
		<stop stop-color="#C295DE" offset="1"/>
	</radialGradient>
	<path d="m8.65 35.9c-0.5-0.267-0.833-0.684-1-1.25-0.167-0.534-0.117-1.05 0.15-1.55 0.267-0.466 0.684-0.783 1.25-0.949 0.534-0.167 1.05-0.117 1.55 0.149s0.833 0.684 1 1.25c0.133 0.533 0.066 1.05-0.2 1.55-0.267 0.467-0.667 0.784-1.2 0.95-0.567 0.167-1.083 0.117-1.55-0.15z" clip-rule="evenodd" fill="url(#p)" fill-rule="evenodd"/>
	<linearGradient id="q" x1="10.513" x2="20.888" y1="24.975" y2="24.975" gradientUnits="userSpaceOnUse">
		<stop stop-color="#0066DB" offset="0"/>
		<stop stop-color="#00A2FF" offset="1"/>
	</linearGradient>
	<polygon points="20.9 34.15 10.5 27.95 10.5 15.8 20.9 22" clip-rule="evenodd" fill="url(#q)" fill-rule="evenodd"/>
		<use transform="matrix(1 0 0 -1 11.4 21.95)" x="1" y="-12.2" width="8.5" height="12.2" enable-background="new" opacity=".3594" xlink:href="#t"/>
		<linearGradient id="r" x1="-10.287" x2="1.8064" y1="25.799" y2="25.799" gradientTransform="matrix(.4775 -.8786 .8786 .4775 .00038701 .0001303)" gradientUnits="userSpaceOnUse">
		<stop stop-color="#0066DB" offset="0"/>
		<stop stop-color="#21AEFF" offset="1"/>
	</linearGradient>
	<polygon points="20.65 22.15 20.65 22.05 10.5 15.8 20.75 10.15 21 10.25 31.05 15.8 20.9 22.05 20.9 22.15 20.75 22.1" clip-rule="evenodd" fill="url(#r)" fill-rule="evenodd"/>
		<linearGradient id="s" x1="27.999" x2="39.45" y1="10.15" y2="10.15" gradientTransform="matrix(.8864 .4629 -.4629 .8864 -.00017953 .00035393)" gradientUnits="userSpaceOnUse">
		<stop stop-color="#0066DB" offset="0"/>
		<stop stop-color="#00A2FF" offset="1"/>
	</linearGradient>
	<polygon points="20.7 34.15 20.7 22 31.1 15.8 31.1 27.95" clip-rule="evenodd" fill="url(#s)" fill-rule="evenodd"/>
	<rect width="40.95" height="45.55" clip-rule="evenodd" fill-opacity="0"/>
</svg>